<svg width="351" height="464" viewBox="0 0 351 464" fill="none" xmlns="http://www.w3.org/2000/svg">
<g filter="url(#filter0_d_0_367)">
<rect x="36.1232" y="29" width="280" height="394" rx="20" transform="rotate(0.308765 36.1232 29)" fill="#F2F2F2"/>
<rect x="36.6205" y="29.5027" width="279" height="393" rx="19.5" transform="rotate(0.308765 36.6205 29.5027)" stroke="#D2D2D2"/>
</g>
<path d="M89.7456 91.9696L95.7611 92.002C97.6882 92.0124 99.2785 91.6954 100.532 91.0511C101.786 90.3808 102.715 89.4483 103.321 88.2536C103.952 87.033 104.272 85.6155 104.281 84.0009C104.289 82.5426 104.009 81.252 103.442 80.1291C102.902 78.9804 102.06 78.0904 100.918 77.4592C99.7754 76.802 98.3319 76.4687 96.5871 76.4593C95.2069 76.4519 93.9294 76.7184 92.7546 77.259C91.5798 77.7995 90.6382 78.5627 89.9297 79.5485C89.2213 80.5343 88.8633 81.7303 88.8557 83.1365L77.5668 83.0757C77.5836 79.9507 78.4316 77.2339 80.1107 74.9252C81.8159 72.6166 84.0913 70.819 86.9368 69.5322C89.7823 68.2454 92.9108 67.6113 96.3222 67.6296C100.176 67.6504 103.545 68.2936 106.429 69.5591C109.313 70.7987 111.556 72.6207 113.158 75.0252C114.759 77.4297 115.55 80.4027 115.531 83.9443C115.522 85.7412 115.096 87.4837 114.253 89.1719C113.411 90.834 112.205 92.338 110.635 93.6837C109.092 95.0035 107.211 96.0611 104.993 96.8565C102.775 97.6258 100.286 98.003 97.5258 97.9881L89.7134 97.946L89.7456 91.9696ZM89.6995 100.524L89.7309 94.7039L97.5433 94.746C100.642 94.7627 103.362 95.1289 105.702 95.8447C108.041 96.5604 110.002 97.5866 111.583 98.9233C113.165 100.234 114.354 101.79 115.152 103.591C115.95 105.366 116.343 107.334 116.331 109.496C116.317 112.152 115.796 114.519 114.77 116.597C113.743 118.649 112.301 120.386 110.444 121.808C108.614 123.231 106.473 124.313 104.021 125.055C101.569 125.771 98.8976 126.121 96.007 126.105C93.6113 126.092 91.2563 125.754 88.9421 125.091C86.6541 124.401 84.5762 123.387 82.7084 122.049C80.8668 120.685 79.3915 118.984 78.2827 116.947C77.2001 114.884 76.6663 112.446 76.6815 109.634L87.9704 109.695C87.9625 111.153 88.3201 112.457 89.0431 113.607C89.766 114.756 90.7638 115.66 92.0363 116.318C93.3349 116.976 94.7784 117.31 96.3669 117.318C98.1638 117.328 99.7019 117.011 100.981 116.366C102.287 115.696 103.282 114.764 103.965 113.57C104.675 112.35 105.034 110.932 105.043 109.318C105.054 107.235 104.686 105.566 103.937 104.312C103.189 103.032 102.113 102.088 100.71 101.482C99.3071 100.875 97.6421 100.567 95.715 100.557L89.6995 100.524Z" fill="#F24822"/>
<path fill-rule="evenodd" clip-rule="evenodd" d="M109.757 160.401C99.0666 160.508 96.8759 172.666 96.8759 172.666C96.8759 172.666 94.4748 160.483 83.7861 160.261C73.0971 160.039 66.4681 169.377 70.0332 179.264C73.598 189.151 77.1909 191.391 82.8329 198.575C88.4745 205.76 96.6719 218.18 96.6149 221.099C96.5897 218.179 104.578 205.847 110.297 198.723C116.016 191.6 119.633 189.399 123.304 179.551C126.976 169.703 120.448 160.294 109.757 160.401Z" fill="#F24822"/>
<defs>
<filter id="filter0_d_0_367" x="0.107483" y="0.107483" width="349.904" height="463.288" filterUnits="userSpaceOnUse" color-interpolation-filters="sRGB">
<feFlood flood-opacity="0" result="BackgroundImageFix"/>
<feColorMatrix in="SourceAlpha" type="matrix" values="0 0 0 0 0 0 0 0 0 0 0 0 0 0 0 0 0 0 127 0" result="hardAlpha"/>
<feOffset dy="5"/>
<feGaussianBlur stdDeviation="17"/>
<feColorMatrix type="matrix" values="0 0 0 0 0 0 0 0 0 0 0 0 0 0 0 0 0 0 0.1 0"/>
<feBlend mode="normal" in2="BackgroundImageFix" result="effect1_dropShadow_0_367"/>
<feBlend mode="normal" in="SourceGraphic" in2="effect1_dropShadow_0_367" result="shape"/>
</filter>
</defs>
</svg>
