<svg width="351" height="464" viewBox="0 0 351 464" fill="none" xmlns="http://www.w3.org/2000/svg">
<g filter="url(#filter0_d_0_386)">
<rect x="36.1233" y="29" width="280" height="394" rx="20" transform="rotate(0.308765 36.1233 29)" fill="#F2F2F2"/>
<rect x="36.6206" y="29.5027" width="279" height="393" rx="19.5" transform="rotate(0.308765 36.6206 29.5027)" stroke="#D2D2D2"/>
</g>
<path d="M86.0576 116.716L86.7998 116.72C89.9248 116.737 92.609 116.373 94.8527 115.63C97.1225 114.861 98.9905 113.751 100.457 112.301C101.923 110.851 103.013 109.073 103.728 106.967C104.442 104.835 104.807 102.415 104.821 99.7072L104.88 88.9261C104.891 86.8688 104.692 85.0578 104.284 83.4931C103.902 81.9285 103.336 80.6364 102.586 79.6167C101.862 78.5711 101.007 77.7852 100.02 77.2591C99.0597 76.7331 97.9934 76.4669 96.8216 76.4606C95.5716 76.4538 94.4632 76.7604 93.4963 77.3802C92.5295 77.9739 91.7048 78.7898 91.0221 79.8278C90.3655 80.866 89.8512 82.0611 89.4793 83.4133C89.1336 84.7396 88.9569 86.1319 88.949 87.5902C88.9411 89.0485 89.1029 90.4426 89.4343 91.7726C89.7658 93.0764 90.2674 94.238 90.939 95.2573C91.6107 96.2505 92.4528 97.0493 93.4651 97.6537C94.4777 98.2321 95.674 98.525 97.0542 98.5325C98.3823 98.5396 99.5685 98.2986 100.613 97.8095C101.683 97.2944 102.585 96.6221 103.319 95.7928C104.079 94.9635 104.657 94.0421 105.053 93.0286C105.475 92.0153 105.689 90.9877 105.694 89.9461L109.394 91.9973C109.384 93.8202 108.984 95.6149 108.193 97.3815C107.403 99.1481 106.3 100.757 104.886 102.208C103.498 103.632 101.89 104.77 100.063 105.619C98.2354 106.469 96.28 106.888 94.1967 106.877C91.5405 106.862 89.1864 106.368 87.1343 105.393C85.0824 104.393 83.3449 103.029 81.9219 101.303C80.5251 99.5502 79.4683 97.5132 78.7516 95.1916C78.035 92.87 77.6839 90.3551 77.6985 87.6468C77.7134 84.8864 78.1701 82.2977 79.0685 79.8806C79.993 77.4637 81.2936 75.3352 82.9702 73.4953C84.6728 71.6555 86.6988 70.221 89.0481 69.192C91.4237 68.1371 94.0567 67.6174 96.9473 67.633C99.8379 67.6486 102.465 68.2226 104.829 69.3552C107.192 70.4877 109.215 72.0872 110.897 74.1536C112.578 76.1939 113.867 78.6358 114.764 81.4792C115.686 84.3228 116.138 87.4763 116.119 90.9398L116.098 94.846C116.078 98.5438 115.656 101.979 114.831 105.152C114.033 108.325 112.833 111.196 111.23 113.765C109.654 116.309 107.689 118.486 105.335 120.296C103.008 122.107 100.305 123.485 97.2271 124.432C94.1491 125.379 90.709 125.842 86.907 125.822L86.0086 125.817L86.0576 116.716Z" fill="#F24822"/>
<path fill-rule="evenodd" clip-rule="evenodd" d="M109.757 160.401C99.0668 160.508 96.8761 172.666 96.8761 172.666C96.8761 172.666 94.475 160.483 83.7862 160.261C73.0973 160.039 66.4683 169.377 70.0334 179.264C73.5982 189.151 77.1911 191.391 82.833 198.575C88.4747 205.76 96.6721 218.18 96.6151 221.099C96.5899 218.179 104.578 205.847 110.297 198.723C116.017 191.6 119.633 189.399 123.305 179.551C126.976 169.703 120.448 160.294 109.757 160.401Z" fill="#F24822"/>
<defs>
<filter id="filter0_d_0_386" x="0.107422" y="0.107483" width="349.904" height="463.288" filterUnits="userSpaceOnUse" color-interpolation-filters="sRGB">
<feFlood flood-opacity="0" result="BackgroundImageFix"/>
<feColorMatrix in="SourceAlpha" type="matrix" values="0 0 0 0 0 0 0 0 0 0 0 0 0 0 0 0 0 0 127 0" result="hardAlpha"/>
<feOffset dy="5"/>
<feGaussianBlur stdDeviation="17"/>
<feColorMatrix type="matrix" values="0 0 0 0 0 0 0 0 0 0 0 0 0 0 0 0 0 0 0.1 0"/>
<feBlend mode="normal" in2="BackgroundImageFix" result="effect1_dropShadow_0_386"/>
<feBlend mode="normal" in="SourceGraphic" in2="effect1_dropShadow_0_386" result="shape"/>
</filter>
</defs>
</svg>
