<svg width="351" height="464" viewBox="0 0 351 464" fill="none" xmlns="http://www.w3.org/2000/svg">
<g filter="url(#filter0_d_0_374)">
<rect x="36.1233" y="29" width="280" height="394" rx="20" transform="rotate(0.308765 36.1233 29)" fill="#F2F2F2"/>
<rect x="36.6206" y="29.5027" width="279" height="393" rx="19.5" transform="rotate(0.308765 36.6206 29.5027)" stroke="#D2D2D2"/>
</g>
<path d="M88.7682 99.3863L79.7956 97.1894L83.1931 68.3792L115.146 68.5514L115.097 77.6528L92.4017 77.5305L90.9275 90.14C91.6851 89.7013 92.8334 89.2388 94.3725 88.7523C95.9117 88.2397 97.6319 87.9886 99.5329 87.9988C102.293 88.0137 104.739 88.4566 106.87 89.3274C109 90.1983 110.803 91.458 112.279 93.1066C113.781 94.7554 114.916 96.7667 115.684 99.1407C116.452 101.515 116.829 104.199 116.813 107.194C116.799 109.72 116.395 112.126 115.602 114.414C114.808 116.675 113.612 118.7 112.014 120.488C110.416 122.251 108.417 123.633 106.015 124.636C103.614 125.639 100.773 126.131 97.4915 126.113C95.0436 126.1 92.6759 125.723 90.3881 124.981C88.1265 124.24 86.0881 123.148 84.2729 121.706C82.4838 120.264 81.0478 118.525 79.965 116.488C78.9084 114.425 78.3612 112.078 78.3232 109.447L89.495 109.508C89.6425 111.123 90.0517 112.518 90.7224 113.694C91.4194 114.843 92.3391 115.734 93.4815 116.365C94.6239 116.996 95.9634 117.316 97.4998 117.324C98.9321 117.332 100.158 117.065 101.176 116.524C102.195 115.982 103.019 115.232 103.649 114.271C104.28 113.285 104.741 112.142 105.035 110.841C105.355 109.515 105.518 108.083 105.527 106.547C105.535 105.011 105.36 103.616 105.002 102.364C104.645 101.112 104.091 100.029 103.34 99.1132C102.59 98.1977 101.63 97.4894 100.461 96.9883C99.3179 96.4873 97.9781 96.2327 96.4416 96.2245C94.3583 96.2132 92.742 96.53 91.5927 97.1749C90.4694 97.8199 89.5279 98.557 88.7682 99.3863Z" fill="#F24822"/>
<path fill-rule="evenodd" clip-rule="evenodd" d="M109.757 160.401C99.0667 160.508 96.876 172.666 96.876 172.666C96.876 172.666 94.4748 160.483 83.7861 160.261C73.0971 160.039 66.4682 169.377 70.0332 179.264C73.598 189.151 77.191 191.391 82.8329 198.575C88.4746 205.76 96.6719 218.18 96.615 221.099C96.5898 218.179 104.578 205.847 110.297 198.723C116.016 191.6 119.633 189.399 123.304 179.551C126.976 169.703 120.448 160.294 109.757 160.401Z" fill="#F24822"/>
<defs>
<filter id="filter0_d_0_374" x="0.107544" y="0.107483" width="349.904" height="463.288" filterUnits="userSpaceOnUse" color-interpolation-filters="sRGB">
<feFlood flood-opacity="0" result="BackgroundImageFix"/>
<feColorMatrix in="SourceAlpha" type="matrix" values="0 0 0 0 0 0 0 0 0 0 0 0 0 0 0 0 0 0 127 0" result="hardAlpha"/>
<feOffset dy="5"/>
<feGaussianBlur stdDeviation="17"/>
<feColorMatrix type="matrix" values="0 0 0 0 0 0 0 0 0 0 0 0 0 0 0 0 0 0 0.1 0"/>
<feBlend mode="normal" in2="BackgroundImageFix" result="effect1_dropShadow_0_374"/>
<feBlend mode="normal" in="SourceGraphic" in2="effect1_dropShadow_0_374" result="shape"/>
</filter>
</defs>
</svg>
