<svg width="351" height="464" viewBox="0 0 351 464" fill="none" xmlns="http://www.w3.org/2000/svg">
<g filter="url(#filter0_d_0_364)">
<rect x="36.1232" y="29" width="280" height="394" rx="20" transform="rotate(0.308765 36.1232 29)" fill="#F2F2F2"/>
<rect x="36.6205" y="29.5027" width="279" height="393" rx="19.5" transform="rotate(0.308765 36.6205 29.5027)" stroke="#D2D2D2"/>
</g>
<path d="M116.996 116.648L116.948 125.437L78.0428 125.227L78.0832 117.727L96.5877 98.1003C98.4477 96.053 99.9157 94.251 100.992 92.6942C102.068 91.1115 102.844 89.6964 103.319 88.4489C103.821 87.1755 104.075 85.966 104.081 84.8201C104.09 83.1014 103.812 81.6285 103.246 80.4015C102.679 79.1484 101.838 78.1804 100.722 77.4972C99.6321 76.8143 98.2798 76.4684 96.6652 76.4597C94.9465 76.4505 93.4599 76.8591 92.2054 77.6857C90.977 78.5125 90.0333 79.6662 89.3742 81.1471C88.7412 82.6281 88.4197 84.306 88.4096 86.181L77.1207 86.1202C77.1389 82.7348 77.9629 79.6403 79.5926 76.8365C81.2225 74.0067 83.5132 71.7664 86.4649 70.1156C89.4167 68.4388 92.9108 67.6113 96.9472 67.633C100.931 67.6545 104.287 68.3236 107.015 69.6404C109.768 70.9313 111.841 72.7915 113.235 75.2209C114.654 77.6244 115.355 80.4928 115.337 83.8261C115.327 85.7011 115.017 87.5354 114.409 89.329C113.8 91.0966 112.931 92.8627 111.802 94.6275C110.699 96.3664 109.361 98.13 107.789 99.9185C106.217 101.707 104.475 103.56 102.564 105.476L92.6212 116.517L116.996 116.648Z" fill="#F24822"/>
<path fill-rule="evenodd" clip-rule="evenodd" d="M109.757 160.401C99.0666 160.508 96.876 172.666 96.876 172.666C96.876 172.666 94.4748 160.483 83.7861 160.261C73.0971 160.039 66.4681 169.377 70.0332 179.264C73.598 189.151 77.191 191.391 82.8329 198.575C88.4745 205.76 96.6719 218.18 96.615 221.099C96.5898 218.179 104.578 205.847 110.297 198.723C116.016 191.6 119.633 189.399 123.304 179.551C126.976 169.703 120.448 160.294 109.757 160.401Z" fill="#F24822"/>
<defs>
<filter id="filter0_d_0_364" x="0.107483" y="0.107483" width="349.904" height="463.288" filterUnits="userSpaceOnUse" color-interpolation-filters="sRGB">
<feFlood flood-opacity="0" result="BackgroundImageFix"/>
<feColorMatrix in="SourceAlpha" type="matrix" values="0 0 0 0 0 0 0 0 0 0 0 0 0 0 0 0 0 0 127 0" result="hardAlpha"/>
<feOffset dy="5"/>
<feGaussianBlur stdDeviation="17"/>
<feColorMatrix type="matrix" values="0 0 0 0 0 0 0 0 0 0 0 0 0 0 0 0 0 0 0.1 0"/>
<feBlend mode="normal" in2="BackgroundImageFix" result="effect1_dropShadow_0_364"/>
<feBlend mode="normal" in="SourceGraphic" in2="effect1_dropShadow_0_364" result="shape"/>
</filter>
</defs>
</svg>
